<svg id="gradient" xmlns="http://www.w3.org/2000/svg" xmlns:xlink="http://www.w3.org/1999/xlink" viewBox="0 0 64 64"><defs><linearGradient id="linear-gradient" x1="0.371" y1="31.973" x2="63.542" y2="31.973" gradientUnits="userSpaceOnUse"><stop offset="0.009" stop-color="#ffffff" id="id_102"></stop><stop offset="1" stop-color="#ffffff" id="id_103"></stop></linearGradient></defs><path d="M53,52.931A8.008,8.008,0,0,0,60,45V14H58v5.586l-2.076,2.075a5.872,5.872,0,0,0-1.7-3.851L53,16.586V10H51v6.586L49.776,17.81a5.878,5.878,0,0,0-1.7,3.851L46,19.586V14H44V45a8.008,8.008,0,0,0,7,7.931v4.256a90.457,90.457,0,0,0-18-2V44.931A8.008,8.008,0,0,0,40,37V6H38v5.586l-2.076,2.075a5.872,5.872,0,0,0-1.7-3.851L33,8.586V2H31V8.586L29.776,9.81a5.878,5.878,0,0,0-1.7,3.851L26,11.586V6H24V37a8.008,8.008,0,0,0,7,7.931V55.184a90.441,90.441,0,0,0-18,2V52.931A8.008,8.008,0,0,0,20,45V14H18v5.586l-2.076,2.075a5.872,5.872,0,0,0-1.7-3.851L13,16.586V10H11v6.586L9.776,17.81a5.878,5.878,0,0,0-1.7,3.851L6,19.586V14H4V45a8.008,8.008,0,0,0,7,7.931v4.718c-2.807.671-5.588,1.462-8.326,2.406l.652,1.89a88.359,88.359,0,0,1,57.348,0l.652-1.89c-2.738-.944-5.519-1.735-8.326-2.406ZM18,45a6.006,6.006,0,0,1-5,5.91v-2.5l5-5Zm0-4.414-5,5V41.414l5-5Zm0-7-5,5V34.414l5-5Zm0-11.172v4.172l-5,5V27.414l1.224-1.224Zm-7,28.5A6.006,6.006,0,0,1,6,45V43.414l5,5Zm0-5.324-5-5V36.414l5,5Zm0-7-5-5V29.414l5,5Zm0-7-5-5V22.414L9.776,26.19,11,27.414Zm1-6-.81-.81a3.932,3.932,0,0,1,0-5.552l.81-.81.81.81a3.932,3.932,0,0,1,0,5.552ZM38,37a6.006,6.006,0,0,1-5,5.91v-2.5l5-5Zm0-4.414-5,5V33.414l5-5Zm0-7-5,5V26.414l5-5Zm0-11.172v4.172l-5,5V19.414l1.224-1.224Zm-7,28.5A6.006,6.006,0,0,1,26,37V35.414l5,5Zm0-5.324-5-5V28.414l5,5Zm0-7-5-5V21.414l5,5Zm0-7-5-5V14.414l3.776,3.776L31,19.414Zm1-6-.81-.81a3.932,3.932,0,0,1,0-5.552l.81-.81.81.81a3.932,3.932,0,0,1,0,5.552ZM58,45a6.006,6.006,0,0,1-5,5.91v-2.5l5-5Zm0-4.414-5,5V41.414l5-5Zm0-7-5,5V34.414l5-5Zm0-11.172v4.172l-5,5V27.414l1.224-1.224Zm-7,28.5A6.006,6.006,0,0,1,46,45V43.414l5,5Zm0-5.324-5-5V36.414l5,5Zm0-7-5-5V29.414l5,5Zm0-7-5-5V22.414l3.776,3.776L51,27.414Zm1-6-.81-.81a3.932,3.932,0,0,1,0-5.552l.81-.81.81.81a3.932,3.932,0,0,1,0,5.552Z" style="fill:url(#linear-gradient)" id="id_101"></path></svg>